<?xml version="1.0" encoding="utf-8"?>
<!-- Generator: Adobe Illustrator 24.1.1, SVG Export Plug-In . SVG Version: 6.00 Build 0)  -->
<svg version="1.1" id="圖層_1" xmlns="http://www.w3.org/2000/svg" xmlns:xlink="http://www.w3.org/1999/xlink" x="0px" y="0px"
	 viewBox="0 0 140.23 49.08" style="enable-background:new 0 0 140.23 49.08;" xml:space="preserve">
<style type="text/css">
	.st0{fill:#AAB2AB;}
	.st1{fill:#FFFFFF;}
	.st2{enable-background:new    ;}
	.st3{fill-rule:evenodd;clip-rule:evenodd;}
</style>
<g id="layer1">
	<g id="g361" transform="matrix(0.9937728,0,0,0.9936696,-437.11979,0)">
		<path id="path3817_4_" class="st0" d="M443.87,0.52l133.3,0.24c1.86,0,3.53-0.28,3.53,3.72l-0.16,43.9H440.5V4.31
			C440.5,2.35,440.69,0.52,443.87,0.52z"/>
		<path id="path364" d="M578.33,0H442.5c-1.46,0-2.64,1.19-2.64,2.64V48.8c0,0.33,0.27,0.6,0.6,0.6h139.92c0.33,0,0.6-0.27,0.6-0.6
			V2.64C580.97,1.19,579.79,0,578.33,0z M442.5,1.19h135.83c0.8,0,1.45,0.65,1.45,1.45c0,0,0,18.57,0,32.01H482.7
			c-3.56,6.43-10.41,10.8-18.28,10.8c-7.87,0-14.72-4.36-18.28-10.8h-5.08c0-13.44,0-32.01,0-32.01
			C441.05,1.84,441.7,1.19,442.5,1.19z"/>
		<g id="g5908_4_" transform="matrix(0.872921,0,0,0.872921,50.12536,143.2144)">
			<path id="path5906_4_" class="st1" d="M492.98-137.73c0.01,10.14-8.21,18.37-18.36,18.38c-10.14,0.01-18.37-8.21-18.38-18.36
				c0-0.01,0-0.02,0-0.02c-0.01-10.15,8.21-18.37,18.36-18.38c10.15-0.01,18.37,8.21,18.38,18.36
				C492.98-137.75,492.98-137.74,492.98-137.73z"/>
			<g id="g5706_4_" transform="translate(-289.6157,99.0653)">
				<path id="path5708_4_" d="M779.16-251.76c4.07,4.07,6.11,9.06,6.11,14.96c0,5.9-2,10.83-6,14.8c-4.25,4.18-9.27,6.27-15.06,6.27
					c-5.72,0-10.66-2.07-14.8-6.22c-4.14-4.14-6.22-9.1-6.22-14.86c0-5.76,2.07-10.75,6.22-14.96c4.04-4.08,8.97-6.11,14.8-6.11
					C770.1-257.87,775.08-255.83,779.16-251.76z M752.14-249.02c-3.44,3.48-5.17,7.55-5.17,12.23c0,4.67,1.7,8.71,5.11,12.12
					c3.41,3.41,7.47,5.11,12.17,5.11s8.8-1.72,12.28-5.16c3.3-3.2,4.95-7.22,4.95-12.07c0-4.81-1.68-8.9-5.03-12.25
					c-3.35-3.35-7.42-5.03-12.2-5.03C759.48-254.08,755.44-252.39,752.14-249.02z M761.2-238.85c-0.53-1.15-1.31-1.72-2.36-1.72
					c-1.86,0-2.78,1.25-2.78,3.75c0,2.5,0.93,3.75,2.78,3.75c1.23,0,2.1-0.61,2.63-1.83l2.57,1.37c-1.23,2.18-3.07,3.27-5.52,3.27
					c-1.89,0-3.41-0.58-4.55-1.74c-1.14-1.16-1.71-2.76-1.71-4.8c0-2,0.59-3.6,1.76-4.77s2.64-1.77,4.39-1.77
					c2.6,0,4.45,1.02,5.58,3.06L761.2-238.85z M773.31-238.85c-0.53-1.15-1.3-1.72-2.32-1.72c-1.89,0-2.84,1.25-2.84,3.75
					c0,2.5,0.95,3.75,2.84,3.75c1.23,0,2.09-0.61,2.58-1.83l2.63,1.37c-1.23,2.18-3.06,3.27-5.51,3.27c-1.89,0-3.4-0.58-4.54-1.74
					c-1.14-1.16-1.71-2.76-1.71-4.8c0-2,0.58-3.6,1.73-4.77c1.15-1.18,2.62-1.77,4.41-1.77c2.59,0,4.45,1.02,5.56,3.06
					L773.31-238.85z"/>
			</g>
		</g>
		<g id="g370" class="st2">
			<path id="path372" class="st1" d="M496.41,38.51c0.37,0,0.71,0.03,1.02,0.1s0.57,0.17,0.79,0.32c0.22,0.15,0.39,0.35,0.51,0.59
				c0.12,0.25,0.18,0.55,0.18,0.92c0,0.39-0.09,0.72-0.27,0.98c-0.18,0.26-0.44,0.48-0.79,0.64c0.48,0.14,0.84,0.38,1.08,0.73
				c0.24,0.35,0.36,0.76,0.36,1.25c0,0.39-0.08,0.73-0.23,1.02c-0.15,0.29-0.36,0.52-0.62,0.7c-0.26,0.18-0.55,0.32-0.89,0.4
				c-0.33,0.09-0.67,0.13-1.02,0.13h-3.78v-7.79L496.41,38.51L496.41,38.51z M496.2,41.66c0.3,0,0.56-0.07,0.75-0.22
				s0.29-0.38,0.29-0.71c0-0.18-0.03-0.33-0.1-0.45c-0.07-0.12-0.15-0.21-0.26-0.27c-0.11-0.07-0.24-0.11-0.38-0.14
				c-0.14-0.03-0.29-0.04-0.44-0.04h-1.6v1.82H496.2z M496.29,44.97c0.17,0,0.33-0.02,0.48-0.05s0.29-0.09,0.41-0.16
				c0.12-0.08,0.21-0.18,0.28-0.31c0.07-0.13,0.1-0.3,0.1-0.5c0-0.4-0.11-0.68-0.34-0.86c-0.23-0.17-0.52-0.26-0.9-0.26h-1.87v2.14
				H496.29z"/>
			<path id="path374" class="st1" d="M499.58,38.51h1.92l1.82,3.08l1.81-3.08h1.91l-2.89,4.8v2.99h-1.72v-3.03L499.58,38.51z"/>
		</g>
		<g id="g376" class="st2">
			<path id="path378" class="st1" d="M525.13,38.51l3.25,5.22h0.02v-5.22h1.61v7.79h-1.71l-3.24-5.21h-0.02v5.21h-1.61v-7.79H525.13
				z"/>
			<path id="path380" class="st1" d="M536.51,40.59c-0.1-0.16-0.23-0.31-0.38-0.43c-0.15-0.12-0.33-0.22-0.52-0.29
				c-0.19-0.07-0.39-0.1-0.6-0.1c-0.39,0-0.71,0.07-0.98,0.22c-0.27,0.15-0.49,0.35-0.65,0.6c-0.17,0.25-0.29,0.54-0.37,0.86
				c-0.08,0.32-0.11,0.65-0.11,0.99c0,0.33,0.04,0.65,0.11,0.95c0.08,0.31,0.2,0.59,0.37,0.83c0.17,0.25,0.38,0.45,0.65,0.59
				c0.27,0.15,0.6,0.22,0.98,0.22c0.52,0,0.93-0.16,1.23-0.48c0.29-0.32,0.47-0.74,0.54-1.27h1.66c-0.04,0.49-0.16,0.93-0.34,1.32
				c-0.18,0.39-0.42,0.73-0.72,1.01c-0.3,0.28-0.65,0.49-1.05,0.63c-0.4,0.15-0.84,0.22-1.32,0.22c-0.6,0-1.13-0.1-1.61-0.31
				c-0.48-0.21-0.88-0.49-1.21-0.86c-0.33-0.36-0.58-0.79-0.75-1.28c-0.17-0.49-0.26-1.02-0.26-1.59c0-0.58,0.09-1.12,0.26-1.62
				c0.17-0.5,0.43-0.93,0.75-1.3c0.33-0.37,0.73-0.66,1.21-0.87c0.48-0.21,1.01-0.32,1.61-0.32c0.43,0,0.83,0.06,1.22,0.19
				c0.38,0.12,0.72,0.3,1.02,0.54c0.3,0.24,0.55,0.53,0.75,0.88s0.32,0.75,0.37,1.2h-1.66C536.68,40.93,536.62,40.75,536.51,40.59z"
				/>
		</g>
		<g id="g382" class="st2">
			<path id="path384" class="st1" d="M555.52,38.51l3.25,5.22h0.02v-5.22h1.61v7.79h-1.71l-3.24-5.21h-0.02v5.21h-1.61v-7.79H555.52
				z"/>
			<path id="path386" class="st1" d="M565.26,38.51c0.5,0,0.97,0.08,1.4,0.24c0.43,0.16,0.81,0.4,1.13,0.72
				c0.32,0.32,0.56,0.72,0.74,1.2c0.18,0.48,0.27,1.04,0.27,1.69c0,0.57-0.07,1.09-0.22,1.57c-0.15,0.48-0.37,0.89-0.66,1.24
				c-0.3,0.35-0.66,0.62-1.1,0.82c-0.44,0.2-0.96,0.3-1.56,0.3h-3.36v-7.79L565.26,38.51L565.26,38.51z M565.14,44.86
				c0.25,0,0.49-0.04,0.72-0.12c0.23-0.08,0.44-0.21,0.62-0.4c0.18-0.18,0.33-0.43,0.44-0.72c0.11-0.3,0.16-0.66,0.16-1.09
				c0-0.39-0.04-0.75-0.11-1.06c-0.08-0.32-0.2-0.59-0.38-0.81c-0.17-0.22-0.41-0.4-0.69-0.52c-0.29-0.12-0.64-0.18-1.06-0.18h-1.22
				v4.9L565.14,44.86L565.14,44.86z"/>
		</g>
		<g id="g6370_1_" transform="translate(286.1464,208.0498)">
			<g id="g7610_1_" transform="matrix(1.146822,0,0,1.146822,-67.14005,-41.89676)">
				<path id="path6372_1_" class="st1" d="M282.61-129.52c0,5.64-4.56,10.22-10.21,10.22c-5.64,0-10.22-4.57-10.22-10.21
					c0-0.01,0-0.01,0-0.01c0-5.64,4.57-10.22,10.21-10.22c5.64,0,10.22,4.57,10.22,10.21C282.61-129.53,282.61-129.52,282.61-129.52
					z"/>
				<path id="path6374_1_" d="M272.38-141.41c3.33,0,6.15,1.15,8.45,3.45c2.3,2.3,3.45,5.11,3.45,8.44c0,3.33-1.13,6.11-3.39,8.35
					c-2.4,2.36-5.24,3.54-8.51,3.54c-3.23,0-6.02-1.17-8.36-3.51c-2.34-2.34-3.51-5.13-3.51-8.38c0-3.25,1.17-6.07,3.51-8.44
					C266.3-140.26,269.09-141.41,272.38-141.41z M263.18-132.71c-0.35,1-0.53,2.07-0.53,3.19c0,2.64,0.96,4.91,2.89,6.84
					c1.92,1.92,4.22,2.88,6.88,2.88c2.66,0,4.97-0.97,6.93-2.91c0.66-0.64,1.2-1.33,1.63-2.08l-4.48-2
					c-0.3,1.51-1.65,2.53-3.27,2.65v1.83h-1.37v-1.83c-1.33-0.01-2.62-0.56-3.61-1.42l1.64-1.65c0.79,0.74,1.58,1.08,2.65,1.08
					c0.7,0,1.47-0.27,1.47-1.18c0-0.32-0.12-0.55-0.32-0.71l-1.13-0.5l-1.41-0.63c-0.7-0.31-1.29-0.57-1.88-0.84L263.18-132.71z
					 M272.41-139.27c-2.7,0-4.98,0.95-6.85,2.85c-0.51,0.51-0.95,1.05-1.32,1.61l4.54,2.02c0.41-1.26,1.61-2.03,3.06-2.11v-1.83
					h1.37v1.83c0.94,0.05,1.97,0.3,2.99,1.09l-1.56,1.61c-0.58-0.41-1.3-0.7-2.03-0.7c-0.59,0-1.43,0.18-1.43,0.92
					c0,0.11,0.04,0.21,0.11,0.3l1.52,0.68l1.03,0.46c0.66,0.29,1.29,0.57,1.91,0.85l6.09,2.71c0.2-0.8,0.3-1.65,0.3-2.54
					c0-2.72-0.95-5.01-2.86-6.9C277.4-138.32,275.11-139.27,272.41-139.27z"/>
			</g>
		</g>
		<g id="g6394_1_" transform="matrix(0.624995,0,0,0.624995,312.8511,316.9328)">
			<path id="path6396_1_" class="st1" d="M418.96-478.91c0.01,11-8.9,19.92-19.9,19.93c-11,0.01-19.92-8.9-19.93-19.9
				c0-0.01,0-0.02,0-0.03c-0.01-11,8.9-19.92,19.9-19.93c11-0.01,19.92,8.9,19.93,19.9C418.96-478.93,418.96-478.92,418.96-478.91z"
				/>
			<g id="g6398_1_" transform="translate(-23.9521,-87.92102)">
				<path id="path6400_1_" d="M422.69-412.8c-6.04,0-11.16,2.11-15.35,6.33c-4.3,4.36-6.44,9.53-6.44,15.49
					c0,5.96,2.15,11.09,6.44,15.38c4.29,4.29,9.41,6.44,15.35,6.44c6.01,0,11.21-2.16,15.62-6.49c4.15-4.11,6.23-9.22,6.23-15.33
					c0-6.11-2.11-11.27-6.34-15.49C433.98-410.7,428.8-412.8,422.69-412.8z M422.74-408.88c4.95,0,9.16,1.75,12.62,5.24
					c3.49,3.45,5.24,7.67,5.24,12.65c0,5.02-1.71,9.18-5.13,12.49c-3.61,3.56-7.85,5.34-12.73,5.34c-4.88,0-9.08-1.76-12.62-5.29
					c-3.53-3.53-5.3-7.71-5.3-12.54c0-4.84,1.78-9.06,5.35-12.65C413.61-407.13,417.79-408.88,422.74-408.88z"/>
				<g id="g6402_1_">
					<path id="path6404_1_" d="M430.96-396.16H415.1v3.76h15.86V-396.16z M430.96-389.14H415.1v3.76h15.86V-389.14z"/>
				</g>
			</g>
		</g>
		<g id="g398">
			<circle id="circle400" class="st1" cx="500.73" cy="17.9" r="12.63">
			</circle>
			<g id="g402">
				<path id="path404" d="M504.38,14.24c0-0.49-0.39-0.88-0.88-0.88h-5.58c-0.49,0-0.88,0.39-0.88,0.88v5.58h1.56v6.61h4.23v-6.61
					h1.56V14.24L504.38,14.24z"/>
				<circle id="circle406" cx="500.72" cy="10.72" r="1.91">
				</circle>
			</g>
			<path id="path408" class="st3" d="M500.7,3.98c-3.78,0-6.97,1.32-9.59,3.95c-2.69,2.73-4.03,5.95-4.03,9.68s1.34,6.93,4.03,9.61
				c2.69,2.68,5.88,4.02,9.59,4.02c3.75,0,7.01-1.35,9.76-4.06c2.59-2.57,3.89-5.76,3.89-9.58s-1.32-7.04-3.96-9.68
				C507.75,5.3,504.52,3.98,500.7,3.98z M500.73,6.44c3.1,0,5.72,1.09,7.88,3.27c2.19,2.16,3.28,4.8,3.28,7.91
				c0,3.14-1.07,5.74-3.21,7.81c-2.25,2.23-4.9,3.34-7.95,3.34c-3.05,0-5.68-1.1-7.89-3.31c-2.21-2.2-3.31-4.82-3.31-7.84
				c0-3.02,1.11-5.66,3.34-7.91C495.02,7.53,497.64,6.44,500.73,6.44z"/>
		</g>
	</g>
</g>
</svg>
